<svg width="56" height="56" viewBox="0 0 56 56" fill="none" xmlns="http://www.w3.org/2000/svg">
<path d="M52.289 13.3319L50.4404 12.2632C50.3473 12.205 50.2541 12.1467 50.161 12.0914C48.3444 11.0431 46.5249 9.99485 44.7054 8.95239L31.0259 1.05531C30.9793 1.0291 30.9356 1.0029 30.889 0.976691C28.6998 -0.304546 26.6824 -0.339489 24.4786 0.956307C18.2517 4.61074 11.9839 8.19821 5.70744 11.7711C3.93746 12.7786 2.99133 14.2084 3.00006 16.238C3.00006 16.4243 3.00006 16.6136 3.00297 16.8H3.00006V39.472C3.00006 41.1522 3.90834 42.7042 5.37266 43.5254L9.07858 45.6045V45.6016V43.3623V23.2935V18.0958C9.07858 17.5774 9.35514 17.097 9.80637 16.8349L12.2401 15.4314L17.5093 12.3884C18.1323 12.0274 18.9009 12.0274 19.5238 12.3884L21.6781 13.6318L13.0319 18.6257C12.5429 18.9082 12.2401 19.4323 12.2401 19.9972V43.3623V47.3749V47.3779L18.2313 50.7382V47.407V27.9962V22.7956C18.2313 22.2773 18.5078 21.7968 18.9591 21.5347L21.3928 20.1283L26.1118 17.4027C26.761 17.0271 27.5616 17.0271 28.2108 17.4027L30.3214 18.6228L22.1876 23.3255C21.6985 23.608 21.3957 24.1321 21.3957 24.697V47.407V52.5115L23.4161 53.6443C24.3098 54.1597 25.2035 54.678 26.1118 55.1701C26.2952 55.272 26.4553 55.3565 26.598 55.4264L27.6198 56V42.02C27.6198 41.292 27.6198 40.564 27.6198 39.8389V30.5733C27.8993 28.2641 29.0434 26.6335 31.317 25.425C34.8657 23.5352 38.3009 21.4328 41.7855 19.4207C45.1363 17.4843 48.4812 15.5449 52.1143 13.4455C52.1114 13.4455 52.1114 13.4425 52.1085 13.4425L52.289 13.3319ZM6.18779 19.0305L6.14412 18.9548L6.18779 18.9257V19.0305ZM15.3405 23.7303L15.2968 23.6546L15.3405 23.6284V23.7303ZM24.7785 11.7828C23.0871 13.0698 21.1745 11.1596 22.4641 9.4678C24.1555 8.17783 26.0652 10.0909 24.7785 11.7828ZM32.3883 17.2193C31.4538 17.2193 30.694 16.4593 30.694 15.5246C30.694 14.5898 31.4538 13.8298 32.3883 13.8298C33.3228 13.8298 34.0826 14.5898 34.0826 15.5246C34.0826 16.4593 33.3228 17.2193 32.3883 17.2193Z" fill="white"/>
<path d="M50.0011 43.1613L31.6782 53.6703V31.834C31.6782 30.413 32.438 29.0997 33.6724 28.3921L52.3562 17.6851V39.0963C52.3562 40.7735 51.4567 42.3256 50.0011 43.1613Z" fill="white"/>
</svg>
