<svg width="192" height="56" viewBox="0 0 192 56" fill="none" xmlns="http://www.w3.org/2000/svg">
<g clip-path="url(#clip0_11_2708)">
<path d="M49.7959 13.3319L47.9473 12.2632C47.8541 12.205 47.7609 12.1467 47.6678 12.0914C45.8512 11.0431 44.0317 9.99485 42.2123 8.95239L28.5327 1.05531C28.4861 1.0291 28.4425 1.0029 28.3959 0.976691C26.2067 -0.304546 24.1892 -0.339489 21.9855 0.956307C15.7585 4.61074 9.49076 8.19821 3.21428 11.7711C1.44429 12.7786 0.498162 14.2084 0.506896 16.238C0.506896 16.4243 0.506896 16.6136 0.509807 16.8H0.506896V39.472C0.506896 41.1522 1.41518 42.7042 2.8795 43.5254L6.58541 45.6045V45.6016V43.3623V23.2935V18.0958C6.58541 17.5774 6.86197 17.097 7.3132 16.8349L9.74694 15.4314L15.0162 12.3884C15.6391 12.0274 16.4077 12.0274 17.0307 12.3884L19.1849 13.6318L10.5388 18.6257C10.0497 18.9082 9.74694 19.4323 9.74694 19.9972V43.3623V47.3749V47.3779L15.7381 50.7382V47.407V27.9962V22.7956C15.7381 22.2773 16.0147 21.7968 16.4659 21.5347L18.8996 20.1283L23.6186 17.4027C24.2678 17.0271 25.0684 17.0271 25.7176 17.4027L27.8282 18.6228L19.6944 23.3255C19.2053 23.608 18.9026 24.1321 18.9026 24.697V47.407V52.5115L20.9229 53.6443C21.8166 54.1597 22.7104 54.678 23.6186 55.1701C23.802 55.272 23.9622 55.3565 24.1048 55.4264L25.1266 56V42.02C25.1266 41.292 25.1266 40.564 25.1266 39.8389V30.5733C25.4061 28.2641 26.5502 26.6335 28.8238 25.425C32.3725 23.5352 35.8077 21.4328 39.2924 19.4207C42.6431 17.4843 45.9881 15.5449 49.6212 13.4455C49.6183 13.4455 49.6183 13.4425 49.6154 13.4425L49.7959 13.3319ZM3.69462 19.0305L3.65096 18.9548L3.69462 18.9257V19.0305ZM12.8473 23.7303L12.8037 23.6546L12.8473 23.6284V23.7303ZM22.2853 11.7828C20.5939 13.0698 18.6813 11.1596 19.971 9.4678C21.6623 8.17783 23.5721 10.0909 22.2853 11.7828ZM29.8951 17.2193C28.9606 17.2193 28.2008 16.4593 28.2008 15.5246C28.2008 14.5898 28.9606 13.8298 29.8951 13.8298C30.8296 13.8298 31.5894 14.5898 31.5894 15.5246C31.5894 16.4593 30.8296 17.2193 29.8951 17.2193Z" fill="#ED5700"/>
<path d="M47.5077 43.1615L29.1848 53.6706V31.8342C29.1848 30.4132 29.9446 29.1 31.179 28.3924L49.8628 17.6853V39.0965C49.8628 40.7738 48.9633 42.3258 47.5077 43.1615Z" fill="black"/>
<path d="M61.8291 22.0203V18.6667H76.155V22.0203H70.9456V36.9974H67.006V22.0203H61.8291Z" fill="black"/>
<path d="M82.5912 37.3229C80.7462 37.3229 79.4547 36.7043 78.7167 35.4671C77.9787 34.2082 77.6097 32.5477 77.6097 30.4856C77.6097 28.4018 77.9787 26.7305 78.7167 25.4715C79.4764 24.1909 80.7679 23.5506 82.5912 23.5506C83.416 23.5506 84.0997 23.67 84.6424 23.9087C85.185 24.1258 85.6192 24.3971 85.9447 24.7227C86.2703 25.0483 86.4982 25.3522 86.6285 25.6343C86.7804 25.8948 86.8781 26.0576 86.9215 26.1227H86.9866V23.5831H91.0239V36.9974H87.6052L86.9866 34.9787H86.9215C86.8781 35.0872 86.7153 35.3369 86.4331 35.7276C86.1727 36.0966 85.7277 36.4547 85.0982 36.802C84.4905 37.1493 83.6548 37.3229 82.5912 37.3229ZM84.2191 34.0345C85.0005 34.0345 85.5866 33.8717 85.9773 33.5461C86.368 33.2205 86.6285 32.7973 86.7587 32.2763C86.8889 31.7337 86.9541 31.1476 86.9541 30.5182C86.9541 29.867 86.8889 29.2809 86.7587 28.76C86.6285 28.2173 86.368 27.7941 85.9773 27.4902C85.5866 27.1646 85.0005 27.0018 84.2191 27.0018C83.4377 27.0018 82.8408 27.1646 82.4284 27.4902C82.0377 27.8158 81.7772 28.2499 81.647 28.7925C81.5167 29.3135 81.4516 29.8887 81.4516 30.5182C81.4516 31.1476 81.5167 31.7337 81.647 32.2763C81.7772 32.7973 82.0377 33.2205 82.4284 33.5461C82.8408 33.8717 83.4377 34.0345 84.2191 34.0345Z" fill="black"/>
<path d="M101.859 37.3229C101.056 37.3229 100.383 37.2036 99.8407 36.9648C99.2981 36.726 98.8531 36.4547 98.5058 36.1508C98.1585 35.8469 97.9089 35.5756 97.757 35.3369C97.605 35.0764 97.5182 34.9244 97.4965 34.881H97.4314L96.8128 36.9974H93.3941V18.6667H97.4314L97.4639 26.253H97.5291C97.5291 26.2312 97.5942 26.0902 97.7244 25.8297C97.8764 25.5475 98.1151 25.2328 98.4407 24.8855C98.7663 24.5382 99.2004 24.2343 99.7431 23.9738C100.307 23.7134 101.013 23.5831 101.859 23.5831C103.835 23.5831 105.224 24.2017 106.027 25.439C106.852 26.6762 107.264 28.3801 107.264 30.5507C107.264 32.6128 106.863 34.2624 106.059 35.4996C105.256 36.7152 103.856 37.3229 101.859 37.3229ZM100.459 34.0345C101.284 34.0345 101.903 33.8717 102.315 33.5461C102.749 33.1988 103.042 32.7647 103.194 32.2438C103.346 31.7011 103.422 31.1259 103.422 30.5182C103.422 29.9321 103.346 29.3786 103.194 28.8577C103.042 28.315 102.749 27.8809 102.315 27.5553C101.881 27.208 101.252 27.0344 100.427 27.0344C99.233 27.0344 98.4407 27.3817 98.05 28.0762C97.6593 28.7491 97.4639 29.5631 97.4639 30.5182C97.4639 31.4949 97.6593 32.3306 98.05 33.0252C98.4624 33.6981 99.2655 34.0345 100.459 34.0345Z" fill="black"/>
<path d="M109.996 36.9974V18.6667H113.838V36.9974H109.996Z" fill="black"/>
<path d="M122.887 37.3229C121.303 37.3229 120.011 36.9974 119.013 36.3462C118.036 35.695 117.309 34.8593 116.831 33.8392C116.376 32.7973 116.137 31.7011 116.115 30.5507C116.093 29.1398 116.354 27.9026 116.896 26.839C117.439 25.7754 118.21 24.9506 119.208 24.3645C120.228 23.7785 121.411 23.4855 122.757 23.4855C123.994 23.4855 125.101 23.7459 126.078 24.2669C127.055 24.7878 127.825 25.5367 128.39 26.5134C128.954 27.4685 129.247 28.608 129.269 29.9321C129.269 29.9538 129.269 30.0732 129.269 30.2902C129.269 30.5073 129.269 30.6701 129.269 30.7786H119.859C119.859 31.8856 120.12 32.7104 120.641 33.2531C121.183 33.7957 121.911 34.0671 122.822 34.0671C123.538 34.0671 124.125 33.8934 124.58 33.5461C125.058 33.1988 125.34 32.743 125.427 32.1787H129.236C129.106 33.5895 128.498 34.8051 127.413 35.8252C126.349 36.8237 124.841 37.3229 122.887 37.3229ZM119.924 29.1181H125.329C125.329 29.0313 125.307 28.8577 125.264 28.5972C125.221 28.3367 125.112 28.0654 124.938 27.7832C124.765 27.4793 124.494 27.2189 124.125 27.0018C123.777 26.7847 123.289 26.6762 122.659 26.6762C121.835 26.6762 121.227 26.8499 120.836 27.1972C120.467 27.5227 120.228 27.8917 120.12 28.3042C120.011 28.6949 119.946 28.9662 119.924 29.1181Z" fill="black"/>
<path d="M131.736 36.9974V23.5831H135.187L135.22 26.253H135.285C135.285 26.2095 135.35 26.0576 135.48 25.7971C135.632 25.5149 135.849 25.2002 136.131 24.8529C136.435 24.5056 136.826 24.2126 137.303 23.9738C137.803 23.7134 138.421 23.5831 139.159 23.5831C140.158 23.5831 140.917 23.8436 141.438 24.3645C141.981 24.8855 142.372 25.515 142.611 26.253H142.676C142.676 26.2095 142.752 26.0576 142.904 25.7971C143.077 25.5149 143.327 25.2002 143.652 24.8529C143.978 24.5056 144.401 24.2126 144.922 23.9738C145.443 23.7134 146.073 23.5831 146.811 23.5831C147.635 23.5831 148.308 23.7568 148.829 24.1041C149.35 24.4514 149.752 24.9072 150.034 25.4715C150.316 26.0359 150.511 26.6437 150.62 27.2948C150.729 27.9243 150.794 28.5321 150.815 29.1181C150.837 29.6825 150.848 30.1492 150.848 30.5182V36.9974H147.559V30.4856C147.559 30.0732 147.527 29.5957 147.462 29.053C147.397 28.5104 147.212 28.0437 146.908 27.653C146.604 27.2406 146.083 27.0344 145.345 27.0344C144.651 27.0344 144.141 27.2189 143.815 27.5879C143.49 27.9352 143.273 28.3801 143.164 28.9228C143.077 29.4654 143.034 30.0081 143.034 30.5507V36.9974H139.745V30.4856C139.745 30.0732 139.713 29.5957 139.648 29.053C139.583 28.5104 139.398 28.0437 139.094 27.653C138.79 27.2406 138.269 27.0344 137.531 27.0344C136.837 27.0344 136.327 27.2189 136.001 27.5879C135.676 27.9352 135.458 28.3801 135.35 28.9228C135.263 29.4654 135.22 30.0081 135.22 30.5507V36.9974H131.736Z" fill="black"/>
<path d="M157.756 37.3229C155.911 37.3229 154.62 36.7043 153.882 35.4671C153.144 34.2082 152.775 32.5477 152.775 30.4856C152.775 28.4018 153.144 26.7305 153.882 25.4715C154.641 24.1909 155.933 23.5506 157.756 23.5506C158.581 23.5506 159.265 23.67 159.807 23.9087C160.35 24.1258 160.784 24.3971 161.11 24.7227C161.435 25.0483 161.663 25.3522 161.794 25.6343C161.945 25.8948 162.043 26.0576 162.087 26.1227H162.152V23.5831H166.189V36.9974H162.77L162.152 34.9787H162.087C162.043 35.0872 161.88 35.3369 161.598 35.7276C161.338 36.0966 160.893 36.4547 160.263 36.802C159.656 37.1493 158.82 37.3229 157.756 37.3229ZM159.384 34.0345C160.166 34.0345 160.752 33.8717 161.142 33.5461C161.533 33.2205 161.794 32.7973 161.924 32.2763C162.054 31.7337 162.119 31.1476 162.119 30.5182C162.119 29.867 162.054 29.2809 161.924 28.76C161.794 28.2173 161.533 27.7941 161.142 27.4902C160.752 27.1646 160.166 27.0018 159.384 27.0018C158.603 27.0018 158.006 27.1646 157.593 27.4902C157.203 27.8158 156.942 28.2499 156.812 28.7925C156.682 29.3135 156.617 29.8887 156.617 30.5182C156.617 31.1476 156.682 31.7337 156.812 32.2763C156.942 32.7973 157.203 33.2205 157.593 33.5461C158.006 33.8717 158.603 34.0345 159.384 34.0345Z" fill="black"/>
<path d="M173.313 36.9974C172.141 36.9974 171.229 36.7152 170.578 36.1508C169.927 35.5865 169.601 34.6097 169.601 33.2205V26.2855H167.68V23.5831C168.244 23.5831 168.7 23.518 169.048 23.3878C169.417 23.2358 169.688 22.9211 169.861 22.4436C170.057 21.9443 170.155 21.1846 170.155 20.1645H173.28V23.5831H176.341V26.2855H173.28V33.9694H176.406V36.9974H173.313Z" fill="black"/>
<path d="M185.111 37.3229C183.527 37.3229 182.235 36.9974 181.237 36.3462C180.26 35.695 179.533 34.8593 179.056 33.8392C178.6 32.7973 178.361 31.7011 178.339 30.5507C178.318 29.1398 178.578 27.9026 179.121 26.839C179.663 25.7754 180.434 24.9506 181.432 24.3645C182.452 23.7785 183.635 23.4855 184.981 23.4855C186.218 23.4855 187.325 23.7459 188.302 24.2669C189.279 24.7878 190.05 25.5367 190.614 26.5134C191.178 27.4685 191.471 28.608 191.493 29.9321C191.493 29.9538 191.493 30.0732 191.493 30.2902C191.493 30.5073 191.493 30.6701 191.493 30.7786H182.084C182.084 31.8856 182.344 32.7104 182.865 33.2531C183.408 33.7957 184.135 34.0671 185.046 34.0671C185.763 34.0671 186.349 33.8934 186.805 33.5461C187.282 33.1988 187.564 32.743 187.651 32.1787H191.46C191.33 33.5895 190.722 34.8051 189.637 35.8252C188.574 36.8237 187.065 37.3229 185.111 37.3229ZM182.149 29.1181H187.553C187.553 29.0313 187.532 28.8577 187.488 28.5972C187.445 28.3367 187.336 28.0654 187.163 27.7832C186.989 27.4793 186.718 27.2189 186.349 27.0018C186.001 26.7847 185.513 26.6762 184.884 26.6762C184.059 26.6762 183.451 26.8499 183.06 27.1972C182.691 27.5227 182.452 27.8917 182.344 28.3042C182.235 28.6949 182.17 28.9662 182.149 29.1181Z" fill="black"/>
</g>
<defs>
<clipPath id="clip0_11_2708">
<rect width="190.986" height="56" fill="white" transform="translate(0.506836)"/>
</clipPath>
</defs>
</svg>
