<svg width="106" height="16" viewBox="0 0 106 16" fill="none" xmlns="http://www.w3.org/2000/svg">
<path d="M0.802246 3.21614V0.516113H12.3363V3.21614H8.14212V15.2745H4.97025V3.21614H0.802246Z" fill="#D4D4D4"/>
<path d="M17.5183 15.5366C16.0328 15.5366 14.993 15.0386 14.3988 14.0425C13.8047 13.0289 13.5076 11.6919 13.5076 10.0317C13.5076 8.35405 13.8047 7.00841 14.3988 5.99481C15.0105 4.96373 16.0503 4.44819 17.5183 4.44819C18.1824 4.44819 18.7329 4.54431 19.1698 4.73654C19.6067 4.9113 19.9562 5.12975 20.2183 5.39189C20.4804 5.65403 20.6639 5.89869 20.7688 6.12588C20.8911 6.33559 20.9698 6.46666 21.0047 6.51908H21.0572V4.4744H24.3077V15.2745H21.5552L21.0572 13.6492H21.0047C20.9698 13.7366 20.8387 13.9376 20.6115 14.2522C20.4018 14.5493 20.0435 14.8376 19.5367 15.1172C19.0474 15.3968 18.3746 15.5366 17.5183 15.5366ZM18.829 12.889C19.4581 12.889 19.93 12.758 20.2445 12.4958C20.5591 12.2337 20.7688 11.8929 20.8737 11.4735C20.9785 11.0366 21.0309 10.5648 21.0309 10.058C21.0309 9.53368 20.9785 9.06182 20.8737 8.6424C20.7688 8.20551 20.5591 7.86473 20.2445 7.62006C19.93 7.35793 19.4581 7.22686 18.829 7.22686C18.1998 7.22686 17.7193 7.35793 17.3872 7.62006C17.0726 7.8822 16.8629 8.23172 16.7581 8.66862C16.6532 9.08804 16.6008 9.55115 16.6008 10.058C16.6008 10.5648 16.6532 11.0366 16.7581 11.4735C16.8629 11.8929 17.0726 12.2337 17.3872 12.4958C17.7193 12.758 18.1998 12.889 18.829 12.889Z" fill="#D4D4D4"/>
<path d="M33.0316 15.5366C32.3849 15.5366 31.8432 15.4405 31.4063 15.2483C30.9694 15.0561 30.6111 14.8376 30.3315 14.5929C30.0519 14.3483 29.8509 14.1298 29.7286 13.9376C29.6063 13.7279 29.5364 13.6056 29.5189 13.5706H29.4665L28.9684 15.2745H26.216V0.516113H29.4665L29.4927 6.62394H29.5451C29.5451 6.60646 29.5975 6.49287 29.7024 6.28316C29.8247 6.05597 30.017 5.80257 30.2791 5.52296C30.5412 5.24334 30.8908 4.99868 31.3277 4.78897C31.782 4.57926 32.35 4.4744 33.0316 4.4744C34.6219 4.4744 35.7403 4.97247 36.3869 5.96859C37.051 6.96472 37.383 8.33658 37.383 10.0842C37.383 11.7444 37.0597 13.0725 36.4131 14.0687C35.7665 15.0473 34.6393 15.5366 33.0316 15.5366ZM31.9044 12.889C32.5684 12.889 33.0665 12.758 33.3985 12.4958C33.7481 12.2162 33.984 11.8667 34.1063 11.4473C34.2286 11.0104 34.2898 10.5473 34.2898 10.058C34.2898 9.5861 34.2286 9.14047 34.1063 8.72105C33.984 8.28415 33.7481 7.93463 33.3985 7.67249C33.049 7.39288 32.5422 7.25307 31.8781 7.25307C30.917 7.25307 30.2791 7.53268 29.9645 8.09191C29.65 8.63367 29.4927 9.28901 29.4927 10.058C29.4927 10.8444 29.65 11.5172 29.9645 12.0764C30.2966 12.6182 30.9432 12.889 31.9044 12.889Z" fill="#D4D4D4"/>
<path d="M39.5826 15.2745V0.516113H42.6758V15.2745H39.5826Z" fill="#D4D4D4"/>
<path d="M49.9616 15.5366C48.6859 15.5366 47.646 15.2745 46.8421 14.7502C46.0557 14.226 45.4703 13.5531 45.0858 12.7318C44.7188 11.8929 44.5266 11.0104 44.5091 10.0842C44.4916 8.94823 44.7014 7.95211 45.1382 7.09579C45.5751 6.23947 46.1955 5.57538 46.9994 5.10354C47.8208 4.63169 48.7732 4.39576 49.8567 4.39576C50.8529 4.39576 51.7441 4.60547 52.5306 5.02489C53.317 5.44431 53.9374 6.04723 54.3917 6.83365C54.8461 7.60259 55.082 8.52007 55.0995 9.5861C55.0995 9.60358 55.0995 9.6997 55.0995 9.87445C55.0995 10.0492 55.0995 10.1803 55.0995 10.2677H47.5237C47.5237 11.1589 47.7334 11.823 48.1528 12.2599C48.5897 12.6968 49.1752 12.9153 49.9092 12.9153C50.4859 12.9153 50.9577 12.7755 51.3247 12.4958C51.7092 12.2162 51.9364 11.8492 52.0063 11.3949H55.0733C54.9684 12.5308 54.4791 13.5094 53.6053 14.3308C52.749 15.1347 51.5344 15.5366 49.9616 15.5366ZM47.5761 8.93076H51.9276C51.9276 8.86085 51.9102 8.72105 51.8752 8.51134C51.8403 8.30162 51.7529 8.08318 51.6131 7.85599C51.4733 7.61133 51.2548 7.40162 50.9577 7.22686C50.6781 7.0521 50.2849 6.96472 49.7781 6.96472C49.114 6.96472 48.6247 7.10453 48.3101 7.38414C48.013 7.64628 47.8208 7.94337 47.7334 8.27541C47.646 8.58998 47.5936 8.80843 47.5761 8.93076Z" fill="#D4D4D4"/>
<path d="M57.0858 15.2745V4.4744H59.8645L59.8907 6.62394H59.9431C59.9431 6.58899 59.9956 6.46665 60.1004 6.25694C60.2227 6.02976 60.3975 5.77636 60.6247 5.49674C60.8694 5.21713 61.1839 4.9812 61.5684 4.78897C61.9703 4.57926 62.4684 4.4744 63.0626 4.4744C63.8665 4.4744 64.4781 4.68411 64.8975 5.10354C65.3344 5.52296 65.649 6.02976 65.8412 6.62394H65.8937C65.8937 6.58899 65.9548 6.46665 66.0772 6.25694C66.217 6.02976 66.418 5.77636 66.6801 5.49674C66.9422 5.21713 67.283 4.9812 67.7024 4.78897C68.1219 4.57926 68.6287 4.4744 69.2228 4.4744C69.8869 4.4744 70.4287 4.61421 70.8481 4.89383C71.2675 5.17344 71.5908 5.54043 71.818 5.99481C72.0452 6.44918 72.2025 6.93851 72.2899 7.46278C72.3772 7.96958 72.4297 8.45891 72.4471 8.93076C72.4646 9.38513 72.4734 9.76086 72.4734 10.058V15.2745H69.8258V10.0317C69.8258 9.6997 69.7995 9.31523 69.7471 8.87833C69.6947 8.44143 69.5461 8.0657 69.3015 7.75113C69.0568 7.41909 68.6374 7.25307 68.0432 7.25307C67.484 7.25307 67.0733 7.40162 66.8112 7.69871C66.549 7.97832 66.3743 8.33658 66.2869 8.77347C66.217 9.21037 66.182 9.64727 66.182 10.0842V15.2745H63.5344V10.0317C63.5344 9.6997 63.5082 9.31523 63.4558 8.87833C63.4034 8.44143 63.2548 8.0657 63.0102 7.75113C62.7655 7.41909 62.3461 7.25307 61.7519 7.25307C61.1927 7.25307 60.782 7.40162 60.5198 7.69871C60.2577 7.97832 60.0829 8.33658 59.9956 8.77347C59.9257 9.21037 59.8907 9.64727 59.8907 10.0842V15.2745H57.0858Z" fill="#D4D4D4"/>
<path d="M78.0354 15.5366C76.5499 15.5366 75.5101 15.0386 74.916 14.0425C74.3218 13.0289 74.0247 11.6919 74.0247 10.0317C74.0247 8.35405 74.3218 7.00841 74.916 5.99481C75.5276 4.96373 76.5674 4.44819 78.0354 4.44819C78.6995 4.44819 79.25 4.54431 79.6869 4.73654C80.1238 4.9113 80.4733 5.12975 80.7354 5.39189C80.9976 5.65403 81.1811 5.89869 81.2859 6.12588C81.4082 6.33559 81.4869 6.46666 81.5218 6.51908H81.5743V4.4744H84.8248V15.2745H82.0723L81.5743 13.6492H81.5218C81.4869 13.7366 81.3558 13.9376 81.1286 14.2522C80.9189 14.5493 80.5607 14.8376 80.0539 15.1172C79.5645 15.3968 78.8917 15.5366 78.0354 15.5366ZM79.3461 12.889C79.9752 12.889 80.4471 12.758 80.7616 12.4958C81.0762 12.2337 81.2859 11.8929 81.3908 11.4735C81.4956 11.0366 81.548 10.5648 81.548 10.058C81.548 9.53368 81.4956 9.06182 81.3908 8.6424C81.2859 8.20551 81.0762 7.86473 80.7616 7.62006C80.4471 7.35793 79.9752 7.22686 79.3461 7.22686C78.717 7.22686 78.2364 7.35793 77.9043 7.62006C77.5898 7.8822 77.3801 8.23172 77.2752 8.66862C77.1703 9.08804 77.1179 9.55115 77.1179 10.058C77.1179 10.5648 77.1703 11.0366 77.2752 11.4735C77.3801 11.8929 77.5898 12.2337 77.9043 12.4958C78.2364 12.758 78.717 12.889 79.3461 12.889Z" fill="#D4D4D4"/>
<path d="M90.5603 15.2745C89.6166 15.2745 88.8826 15.0473 88.3583 14.5929C87.8341 14.1386 87.5719 13.3522 87.5719 12.2337V6.65015H86.0253V4.4744C86.4797 4.4744 86.8467 4.42197 87.1263 4.31712C87.4234 4.19479 87.6418 3.94139 87.7816 3.55692C87.9389 3.15497 88.0175 2.54332 88.0175 1.72195H90.5341V4.4744H92.9982V6.65015H90.5341V12.8366H93.0506V15.2745H90.5603Z" fill="#D4D4D4"/>
<path d="M100.06 15.5366C98.784 15.5366 97.7442 15.2745 96.9403 14.7502C96.1539 14.226 95.5684 13.5531 95.184 12.7318C94.817 11.8929 94.6247 11.0104 94.6073 10.0842C94.5898 8.94823 94.7995 7.95211 95.2364 7.09579C95.6733 6.23947 96.2937 5.57538 97.0976 5.10354C97.9189 4.63169 98.8714 4.39576 99.9549 4.39576C100.951 4.39576 101.842 4.60547 102.629 5.02489C103.415 5.44431 104.035 6.04723 104.49 6.83365C104.944 7.60259 105.18 8.52007 105.198 9.5861C105.198 9.60358 105.198 9.6997 105.198 9.87445C105.198 10.0492 105.198 10.1803 105.198 10.2677H97.6218C97.6218 11.1589 97.8316 11.823 98.251 12.2599C98.6879 12.6968 99.2733 12.9153 100.007 12.9153C100.584 12.9153 101.056 12.7755 101.423 12.4958C101.807 12.2162 102.035 11.8492 102.104 11.3949H105.171C105.067 12.5308 104.577 13.5094 103.703 14.3308C102.847 15.1347 101.633 15.5366 100.06 15.5366ZM97.6743 8.93076H102.026C102.026 8.86085 102.008 8.72105 101.973 8.51134C101.938 8.30162 101.851 8.08318 101.711 7.85599C101.571 7.61133 101.353 7.40162 101.056 7.22686C100.776 7.0521 100.383 6.96472 99.8762 6.96472C99.2122 6.96472 98.7228 7.10453 98.4083 7.38414C98.1112 7.64628 97.9189 7.94337 97.8316 8.27541C97.7442 8.58998 97.6917 8.80843 97.6743 8.93076Z" fill="#D4D4D4"/>
</svg>
